<svg width="18" height="18" viewBox="0 0 18 18" fill="none" xmlns="http://www.w3.org/2000/svg">
<path d="M1 1H2.42419C3.30818 1 4.0039 1.744 3.93024 2.6L3.25088 10.568C3.22435 10.8767 3.26372 11.1874 3.36648 11.4804C3.46924 11.7735 3.63316 12.0425 3.84785 12.2703C4.06253 12.4982 4.32331 12.68 4.61365 12.8043C4.90399 12.9285 5.21756 12.9924 5.5345 12.992H14.2515C15.4302 12.992 16.4615 12.048 16.5515 10.904L16.9935 4.904C17.0917 3.576 16.0604 2.496 14.6935 2.496H4.12668M6.72951 5.8H16.5515M12.6637 17C12.935 17 13.1952 16.8946 13.3871 16.7071C13.579 16.5196 13.6868 16.2652 13.6868 16C13.6868 15.7348 13.579 15.4804 13.3871 15.2929C13.1952 15.1054 12.935 15 12.6637 15C12.3923 15 12.1321 15.1054 11.9402 15.2929C11.7483 15.4804 11.6405 15.7348 11.6405 16C11.6405 16.2652 11.7483 16.5196 11.9402 16.7071C12.1321 16.8946 12.3923 17 12.6637 17ZM6.11564 17C6.38699 17 6.64722 16.8946 6.8391 16.7071C7.03097 16.5196 7.13876 16.2652 7.13876 16C7.13876 15.7348 7.03097 15.4804 6.8391 15.2929C6.64722 15.1054 6.38699 15 6.11564 15C5.84429 15 5.58405 15.1054 5.39218 15.2929C5.2003 15.4804 5.09251 15.7348 5.09251 16C5.09251 16.2652 5.2003 16.5196 5.39218 16.7071C5.58405 16.8946 5.84429 17 6.11564 17Z" stroke="#1449A3" stroke-width="1.2" stroke-miterlimit="10" stroke-linecap="round" stroke-linejoin="round"/>
</svg>
