<svg width="20" height="20" viewBox="0 0 20 20" fill="none" xmlns="http://www.w3.org/2000/svg">
<path d="M20 3.17883V14.4796C20 16.4598 18.189 18.0699 15.9618 18.0699C14.8917 18.0672 13.8662 17.6881 13.1096 17.0154C12.3529 16.3427 11.9265 15.431 11.9235 14.4796C11.9235 12.5095 13.7458 10.8994 15.9618 10.8994C16.9066 10.8994 17.7503 11.1894 18.4364 11.6694V5.719L8.07649 8.33919V16.4097C8.07352 17.3611 7.64711 18.2728 6.89044 18.9455C6.13376 19.6183 5.10834 19.9974 4.03825 20C1.81102 20 0 18.3899 0 16.4097C0 14.4396 1.81102 12.8295 4.03825 12.8295C4.97188 12.8295 5.81553 13.1195 6.50169 13.5896V4.74894C6.50169 3.27883 7.50281 2.13875 9.08887 1.75873L15.5906 0.178617C16.9066 -0.141405 18.0203 -0.0313974 18.8077 0.50864C19.6063 1.03868 20 1.93874 20 3.17883Z" fill="#2C2F56"/>
</svg>
