<svg width="20" height="20" viewBox="0 0 20 20" fill="none" xmlns="http://www.w3.org/2000/svg">
<path d="M4.17648 19C5.9308 19 7.35295 17.7475 7.35295 16.2025C7.35295 14.6574 5.9308 13.4049 4.17648 13.4049C2.42217 13.4049 1 14.6574 1 16.2025C1 17.7475 2.42217 19 4.17648 19Z" stroke="#2C2F56" stroke-width="1.4" stroke-linecap="round" stroke-linejoin="round"/>
<path d="M19 14.3375V3.39817C19 1.06685 17.3405 0.744054 15.6607 1.14755L9.3077 2.67188C8.14706 2.94984 7.35297 3.75684 7.35297 4.9225V6.86825V8.17738V16.1935" stroke="#2C2F56" stroke-width="1.4" stroke-linecap="round" stroke-linejoin="round"/>
<path d="M15.8236 17.135C17.5779 17.135 19 15.8826 19 14.3374C19 12.7924 17.5779 11.5398 15.8236 11.5398C14.0692 11.5398 12.6471 12.7924 12.6471 14.3374C12.6471 15.8826 14.0692 17.135 15.8236 17.135Z" stroke="#2C2F56" stroke-width="1.4" stroke-linecap="round" stroke-linejoin="round"/>
<path d="M7.35291 7.80958L19 5.01199" stroke="#2C2F56" stroke-width="1.4" stroke-linecap="round" stroke-linejoin="round"/>
</svg>
