<svg width="18" height="18" viewBox="0 0 18 18" fill="none" xmlns="http://www.w3.org/2000/svg">
<path d="M6.27751 17.075L8.41334 15.4417C8.73418 15.1917 9.26584 15.1917 9.58668 15.4417L11.7225 17.075C12.2175 17.3 12.8225 17.075 13.0058 16.5917L13.4092 15.4833C13.51 15.2167 13.4092 14.825 13.1892 14.625L11.1083 12.725C10.9525 12.5917 10.8333 12.325 10.8333 12.1333V9.75833C10.8333 9.40833 11.1175 9.24167 11.475 9.375L15.9758 11.1417C16.6817 11.4167 17.2592 11.075 17.2592 10.375V9.3C17.2592 8.74167 16.8008 8.1 16.2325 7.88333L11.1083 5.875C11.0298 5.83835 10.9631 5.78371 10.9149 5.71649C10.8667 5.64927 10.8386 5.57178 10.8333 5.49167V2.99167C10.8333 2.20833 10.2008 1.28333 9.43084 0.924999C9.15584 0.799999 8.83501 0.799999 8.56001 0.924999C7.79001 1.28333 7.15751 2.21667 7.15751 3V5.5C7.15751 5.65 7.02918 5.825 6.88251 5.88333L1.76751 7.89167C1.19918 8.1 0.740845 8.74167 0.740845 9.3V10.375C0.740845 11.075 1.31834 11.4167 2.02418 11.1417L6.52501 9.375C6.87334 9.23333 7.16668 9.40833 7.16668 9.75833V12.1333C7.16668 12.325 7.04751 12.5917 6.90084 12.725L4.82001 14.625C4.60001 14.825 4.49918 15.2083 4.60001 15.4833L5.00334 16.5917C5.16834 17.075 5.77334 17.3083 6.27751 17.075Z" stroke="#2C2F56" stroke-width="1.4" stroke-linecap="round" stroke-linejoin="round"/>
</svg>
