<svg width="22" height="22" viewBox="0 0 22 22" fill="none" xmlns="http://www.w3.org/2000/svg">
<path d="M18.37 6.25351L13.09 2.55935C11.6508 1.55101 9.44166 1.60601 8.05749 2.67851L3.46499 6.26268C2.54832 6.97768 1.82416 8.44435 1.82416 9.59935V15.9243C1.82416 18.2618 3.72166 20.1685 6.05916 20.1685H15.9408C18.2783 20.1685 20.1758 18.271 20.1758 15.9335V9.71851C20.1758 8.48101 19.3783 6.95935 18.37 6.25351ZM11.6875 16.5018C11.6875 16.8777 11.3758 17.1893 11 17.1893C10.6242 17.1893 10.3125 16.8777 10.3125 16.5018V13.7518C10.3125 13.376 10.6242 13.0643 11 13.0643C11.3758 13.0643 11.6875 13.376 11.6875 13.7518V16.5018Z" fill="red"/>
</svg>
