<svg width="20" height="20" viewBox="0 0 20 20" fill="none" xmlns="http://www.w3.org/2000/svg">
<path d="M17.37 5.25351L12.09 1.55935C10.6508 0.551012 8.44166 0.606012 7.05749 1.67851L2.46499 5.26268C1.54832 5.97768 0.824158 7.44435 0.824158 8.59935V14.9243C0.824158 17.2618 2.72166 19.1685 5.05916 19.1685H14.9408C17.2783 19.1685 19.1758 17.271 19.1758 14.9335V8.71851C19.1758 7.48101 18.3783 5.95935 17.37 5.25351ZM10.6875 15.5018C10.6875 15.8777 10.3758 16.1893 9.99999 16.1893C9.62416 16.1893 9.31249 15.8777 9.31249 15.5018V12.7518C9.31249 12.376 9.62416 12.0643 9.99999 12.0643C10.3758 12.0643 10.6875 12.376 10.6875 12.7518V15.5018Z" fill="#2C2F56"/>
</svg>
