<svg width="19" height="19" viewBox="0 0 19 19" fill="none" xmlns="http://www.w3.org/2000/svg">
<path d="M11.2332 1.36245L11.2336 1.36274L16.7 5.19157C16.7 5.1916 16.7 5.19164 16.7001 5.19167C17.1009 5.47258 17.496 5.94632 17.7917 6.51321C18.0873 7.08013 18.25 7.67618 18.25 8.16878V14.6105C18.25 16.6199 16.6205 18.25 14.6154 18.25H4.38462C2.38164 18.25 0.75 16.6125 0.75 14.601V8.04526C0.75 7.58987 0.896859 7.02433 1.16651 6.47605C1.43598 5.92815 1.79617 5.46241 2.16039 5.178L2.16056 5.17787L6.91323 1.46456C6.91356 1.46431 6.91389 1.46406 6.91421 1.4638C8.08744 0.554538 10.0129 0.506532 11.2332 1.36245ZM9.5 16.6622C10.3041 16.6622 10.9618 16.0025 10.9618 15.1996V12.3492C10.9618 11.5463 10.3041 10.8867 9.5 10.8867C8.69589 10.8867 8.03821 11.5463 8.03821 12.3492V15.1996C8.03821 16.0025 8.69589 16.6622 9.5 16.6622Z" stroke="#2C2F56" stroke-width="1.5"/>
</svg>
