<svg width="20" height="20" viewBox="0 0 20 20" fill="none" xmlns="http://www.w3.org/2000/svg">
<g clip-path="url(#clip0_2_46)">
<path d="M10 18.3333C14.6025 18.3333 18.3334 14.6025 18.3334 10C18.3334 5.3975 14.6025 1.66666 10 1.66666C5.39752 1.66666 1.66669 5.3975 1.66669 10C1.66669 14.6025 5.39752 18.3333 10 18.3333Z" stroke="#2C2F56" stroke-width="1.4" stroke-linecap="round" stroke-linejoin="round"/>
<path d="M6.66665 2.5H7.49998C5.87501 7.36797 5.87501 12.632 7.49998 17.5H6.66665M12.5 2.5C14.125 7.36797 14.125 12.632 12.5 17.5" stroke="#2C2F56" stroke-width="1.4" stroke-linecap="round" stroke-linejoin="round"/>
<path d="M2.5 13.3333V12.5C7.36797 14.125 12.632 14.125 17.5 12.5V13.3333M2.5 7.5C7.36797 5.87503 12.632 5.87503 17.5 7.5" stroke="#2C2F56" stroke-width="1.4" stroke-linecap="round" stroke-linejoin="round"/>
</g>
<defs>
<clipPath id="clip0_2_46">
<rect width="20" height="20" fill="white"/>
</clipPath>
</defs>
</svg>
