<svg width="157" height="23" viewBox="0 0 157 23" fill="none" xmlns="http://www.w3.org/2000/svg">
<path d="M11.2354 22V4.50977H17.3584V0.862305H0.703125V4.50977H6.81152V22H11.2354ZM17.4463 22H21.7236V13.2256C21.7236 11.0137 22.9541 9.72461 25.0635 9.72461C25.6787 9.72461 26.2646 9.82715 26.6162 9.97363V6.20898C26.3232 6.12109 25.8984 6.04785 25.4004 6.04785C23.5547 6.04785 22.2217 7.13184 21.665 9.12402H21.5771V6.29688H17.4463V22ZM34.0576 19.1582C32.6074 19.1582 31.6406 18.4258 31.6406 17.2539C31.6406 16.1406 32.5488 15.4229 34.1455 15.3057L37.4561 15.1006V16.2432C37.4561 17.9424 35.918 19.1582 34.0576 19.1582ZM32.6514 22.249C34.6143 22.249 36.5625 21.2676 37.4414 19.5977H37.5293V22H41.6602V11.2041C41.6602 8.04004 39.0381 5.95996 35.0098 5.95996C30.8496 5.95996 28.2568 8.05469 28.0957 11.1016H32.0068C32.2119 9.94434 33.2227 9.15332 34.8193 9.15332C36.4307 9.15332 37.4561 10.0029 37.4561 11.4678V12.5078L33.501 12.7422C29.5898 12.9766 27.3926 14.6318 27.3926 17.4883C27.3926 20.3154 29.6631 22.249 32.6514 22.249ZM50.2588 22.249C52.5732 22.249 54.3896 21.0332 55.1514 19.3047H55.2246V22H59.4434V0.862305H55.166V8.99219H55.0781C54.3164 7.24902 52.5586 6.04785 50.2881 6.04785C46.3477 6.04785 43.8574 9.13867 43.8574 14.1191C43.8574 19.1436 46.333 22.249 50.2588 22.249ZM51.709 9.47559C53.833 9.47559 55.1953 11.292 55.1953 14.1484C55.1953 17.0195 53.833 18.8066 51.709 18.8066C49.5557 18.8066 48.2373 17.0342 48.2373 14.1484C48.2373 11.2773 49.5557 9.47559 51.709 9.47559ZM69.3457 9.12402C71.25 9.12402 72.5537 10.501 72.6416 12.5078H65.9766C66.123 10.5449 67.4707 9.12402 69.3457 9.12402ZM72.7002 17.1953C72.3047 18.3965 71.1035 19.1729 69.5361 19.1729C67.3535 19.1729 65.9326 17.6348 65.9326 15.3936V15.1299H76.7578V13.8262C76.7578 9.05078 73.8721 5.95996 69.3018 5.95996C64.6582 5.95996 61.7285 9.21191 61.7285 14.2217C61.7285 19.2461 64.6289 22.3369 69.4629 22.3369C73.3447 22.3369 76.1572 20.2715 76.626 17.1953H72.7002ZM85.3564 22V4.50977H91.4795V0.862305H74.8242V4.50977H80.9326V22H85.3564ZM92.959 22H97.2363V6.29688H92.959V22ZM95.0977 4.56836C96.3867 4.56836 97.3828 3.58691 97.3828 2.35645C97.3828 1.11133 96.3867 0.144531 95.0977 0.144531C93.8086 0.144531 92.8125 1.11133 92.8125 2.35645C92.8125 3.58691 93.8086 4.56836 95.0977 4.56836ZM114.36 12.1416C114.17 8.58203 111.475 5.95996 107.227 5.95996C102.524 5.95996 99.5215 9.09473 99.5215 14.1338C99.5215 19.2607 102.524 22.3369 107.256 22.3369C111.387 22.3369 114.155 19.9492 114.375 16.2432H110.391C110.127 17.957 109.014 18.9824 107.3 18.9824C105.176 18.9824 103.857 17.2246 103.857 14.1338C103.857 11.1016 105.176 9.31445 107.285 9.31445C109.043 9.31445 110.142 10.4863 110.391 12.1416H114.36ZM120.879 12.5957H120.82V0.862305H116.543V22H120.82V16.8145L121.934 15.6133L126.431 22H131.353L125.068 13.0352L131.06 6.29688H126.211L120.879 12.5957ZM138.896 9.12402C140.801 9.12402 142.104 10.501 142.192 12.5078H135.527C135.674 10.5449 137.021 9.12402 138.896 9.12402ZM142.251 17.1953C141.855 18.3965 140.654 19.1729 139.087 19.1729C136.904 19.1729 135.483 17.6348 135.483 15.3936V15.1299H146.309V13.8262C146.309 9.05078 143.423 5.95996 138.853 5.95996C134.209 5.95996 131.279 9.21191 131.279 14.2217C131.279 19.2461 134.18 22.3369 139.014 22.3369C142.896 22.3369 145.708 20.2715 146.177 17.1953H142.251ZM149.663 2.67871V6.29688H147.451V9.51953H149.663V17.7666C149.663 20.8281 151.099 22.0586 154.79 22.0586C155.654 22.0586 156.387 21.9854 156.826 21.8828V18.7334C156.562 18.7773 156.167 18.8066 155.786 18.8066C154.526 18.8066 153.94 18.2354 153.94 17.0342V9.51953H156.841V6.29688H153.94V2.67871H149.663Z" fill="#1449A3"/>
</svg>
