<svg width="18" height="20" viewBox="0 0 18 20" fill="none" xmlns="http://www.w3.org/2000/svg">
<path d="M13.9 19H4.10001C2.40001 19 1 17.749 1 16.21V3.79001C1 2.26001 2.39001 1 4.10001 1H13.9C15.6 1 17 2.25101 17 3.79001V16.21C17 17.749 15.61 19 13.9 19Z" stroke="#2C2F56" stroke-width="1.4" stroke-linecap="round" stroke-linejoin="round"/>
<path d="M15.5 10.8998H2.5C1.67 10.8998 1 10.2968 1 9.54978V7.74978C1 7.00278 1.67 6.39978 2.5 6.39978H15.5C16.33 6.39978 17 7.00278 17 7.74978V9.54978C17 10.2968 16.33 10.8998 15.5 10.8998Z" stroke="#2C2F56" stroke-width="1.4" stroke-linecap="round" stroke-linejoin="round"/>
<path d="M5.49457 15.1299H5.50355" stroke="#2C2F56" stroke-width="1.4" stroke-linecap="round" stroke-linejoin="round"/>
<path d="M12.4946 15.1299H12.5036" stroke="#2C2F56" stroke-width="1.4" stroke-linecap="round" stroke-linejoin="round"/>
<path d="M6.5 3.69995H11.5" stroke="#2C2F56" stroke-width="1.4" stroke-linecap="round" stroke-linejoin="round"/>
</svg>
