<svg width="22" height="22" viewBox="0 0 22 22" fill="none" xmlns="http://www.w3.org/2000/svg">
<path d="M15.9849 5.08722C17.995 6.49696 19.3819 8.73834 19.6633 11.3245M2.44724 11.3753C2.57359 10.1351 2.96192 8.93662 3.58604 7.86067C4.21016 6.78473 5.05558 5.85629 6.06533 5.13793M7.17085 20.0669C8.33668 20.6653 9.66332 21 11.0603 21C12.407 21 13.6734 20.6957 14.809 20.1379M11.0603 6.63894C11.8013 6.63894 12.512 6.34189 13.0359 5.81314C13.5599 5.28439 13.8543 4.56724 13.8543 3.81947C13.8543 3.0717 13.5599 2.35456 13.0359 1.8258C12.512 1.29705 11.8013 1 11.0603 1C10.3193 1 9.60864 1.29705 9.08467 1.8258C8.56069 2.35456 8.26633 3.0717 8.26633 3.81947C8.26633 4.56724 8.56069 5.28439 9.08467 5.81314C9.60864 6.34189 10.3193 6.63894 11.0603 6.63894ZM3.79397 19.0325C4.53498 19.0325 5.24563 18.7354 5.7696 18.2066C6.29358 17.6779 6.58794 16.9607 6.58794 16.213C6.58794 15.4652 6.29358 14.7481 5.7696 14.2193C5.24563 13.6906 4.53498 13.3935 3.79397 13.3935C3.05296 13.3935 2.34231 13.6906 1.81833 14.2193C1.29436 14.7481 1 15.4652 1 16.213C1 16.9607 1.29436 17.6779 1.81833 18.2066C2.34231 18.7354 3.05296 19.0325 3.79397 19.0325ZM18.206 19.0325C18.947 19.0325 19.6577 18.7354 20.1817 18.2066C20.7056 17.6779 21 16.9607 21 16.213C21 15.4652 20.7056 14.7481 20.1817 14.2193C19.6577 13.6906 18.947 13.3935 18.206 13.3935C17.465 13.3935 16.7544 13.6906 16.2304 14.2193C15.7064 14.7481 15.4121 15.4652 15.4121 16.213C15.4121 16.9607 15.7064 17.6779 16.2304 18.2066C16.7544 18.7354 17.465 19.0325 18.206 19.0325Z" stroke="#2D2C2C" stroke-width="1.5" stroke-linecap="round" stroke-linejoin="round"/>
</svg>
