<svg width="18" height="20" viewBox="0 0 18 20" fill="none" xmlns="http://www.w3.org/2000/svg">
<path d="M9 20C8.24108 20 7.50162 19.6279 6.99568 18.9767L6.01297 17.7209C5.80865 17.4605 5.53622 17.3116 5.24432 17.293C4.95243 17.2837 4.66054 17.4047 4.42703 17.6372L3.87243 17.1628L4.40757 17.6372C3.00649 19.0698 1.92649 18.9581 1.41081 18.7628C0.885405 18.5674 0 17.9256 0 15.8605V5.38605C0 1.25581 1.24541 0 5.32216 0H12.6778C16.7546 0 18 1.25581 18 5.38605V15.8605C18 17.9163 17.1146 18.5581 16.5892 18.7628C16.0735 18.9581 15.0032 19.0698 13.5924 17.6372C13.3589 17.3953 13.0768 17.2651 12.7654 17.293C12.4735 17.3116 12.1914 17.4605 11.987 17.7209L11.0043 18.9767C10.4984 19.6279 9.75892 20 9 20ZM5.18595 15.8884H5.31243C6.03243 15.9256 6.71351 16.2884 7.17081 16.8744L8.15351 18.1302C8.63027 18.7349 9.36 18.7349 9.83676 18.1302L10.8195 16.8744C11.2865 16.2884 11.9578 15.9256 12.6876 15.8884C13.4076 15.8512 14.1276 16.1395 14.653 16.6791C15.3924 17.4326 15.8789 17.5256 16.0443 17.4605C16.2778 17.3674 16.5308 16.8279 16.5308 15.8605V5.38605C16.5308 2.02791 15.9178 1.39535 12.6681 1.39535H5.32216C2.07243 1.39535 1.45946 2.02791 1.45946 5.38605V15.8605C1.45946 16.8372 1.71243 17.3767 1.94595 17.4605C2.11135 17.5256 2.59784 17.4326 3.3373 16.6791C3.8627 16.1674 4.51459 15.8884 5.18595 15.8884Z" fill="#2C2F56"/>
</svg>
